<svg id="visual" viewBox="0 0 900 360" width="900" height="360" xmlns="http://www.w3.org/2000/svg" xmlns:xlink="http://www.w3.org/1999/xlink" version="1.1"><rect x="0" y="0" width="900" height="360" fill="#ffffff"></rect><path d="M0 155L21.5 154.8C43 154.7 86 154.3 128.8 155.2C171.7 156 214.3 158 257.2 163.5C300 169 343 178 385.8 178.3C428.7 178.7 471.3 170.3 514.2 168.2C557 166 600 170 642.8 170.2C685.7 170.3 728.3 166.7 771.2 169.3C814 172 857 181 878.5 185.5L900 190L900 0L878.5 0C857 0 814 0 771.2 0C728.3 0 685.7 0 642.8 0C600 0 557 0 514.2 0C471.3 0 428.7 0 385.8 0C343 0 300 0 257.2 0C214.3 0 171.7 0 128.8 0C86 0 43 0 21.5 0L0 0Z" fill="#69f6fa"></path><path d="M0 135L21.5 133.2C43 131.3 86 127.7 128.8 126.2C171.7 124.7 214.3 125.3 257.2 130C300 134.7 343 143.3 385.8 144.2C428.7 145 471.3 138 514.2 138.7C557 139.3 600 147.7 642.8 151.7C685.7 155.7 728.3 155.3 771.2 151.5C814 147.7 857 140.3 878.5 136.7L900 133L900 0L878.5 0C857 0 814 0 771.2 0C728.3 0 685.7 0 642.8 0C600 0 557 0 514.2 0C471.3 0 428.7 0 385.8 0C343 0 300 0 257.2 0C214.3 0 171.7 0 128.8 0C86 0 43 0 21.5 0L0 0Z" fill="#00c8f5"></path><path d="M0 93L21.5 96.2C43 99.3 86 105.7 128.8 109.7C171.7 113.7 214.3 115.3 257.2 112.5C300 109.7 343 102.3 385.8 102.2C428.7 102 471.3 109 514.2 111C557 113 600 110 642.8 109.7C685.7 109.3 728.3 111.7 771.2 109.3C814 107 857 100 878.5 96.5L900 93L900 0L878.5 0C857 0 814 0 771.2 0C728.3 0 685.7 0 642.8 0C600 0 557 0 514.2 0C471.3 0 428.7 0 385.8 0C343 0 300 0 257.2 0C214.3 0 171.7 0 128.8 0C86 0 43 0 21.5 0L0 0Z" fill="#0097e3"></path><path d="M0 54L21.5 55.2C43 56.3 86 58.7 128.8 60.5C171.7 62.3 214.3 63.7 257.2 62.7C300 61.7 343 58.3 385.8 56C428.7 53.7 471.3 52.3 514.2 56.3C557 60.3 600 69.7 642.8 75C685.7 80.3 728.3 81.7 771.2 82.5C814 83.3 857 83.7 878.5 83.8L900 84L900 0L878.5 0C857 0 814 0 771.2 0C728.3 0 685.7 0 642.8 0C600 0 557 0 514.2 0C471.3 0 428.7 0 385.8 0C343 0 300 0 257.2 0C214.3 0 171.7 0 128.8 0C86 0 43 0 21.5 0L0 0Z" fill="#0062c3"></path><path d="M0 18L21.5 23.5C43 29 86 40 128.8 40C171.7 40 214.3 29 257.2 27.8C300 26.7 343 35.3 385.8 35.3C428.7 35.3 471.3 26.7 514.2 22.3C557 18 600 18 642.8 19.2C685.7 20.3 728.3 22.7 771.2 25.5C814 28.3 857 31.7 878.5 33.3L900 35L900 0L878.5 0C857 0 814 0 771.2 0C728.3 0 685.7 0 642.8 0C600 0 557 0 514.2 0C471.3 0 428.7 0 385.8 0C343 0 300 0 257.2 0C214.3 0 171.7 0 128.8 0C86 0 43 0 21.5 0L0 0Z" fill="#252997"></path></svg>