<svg id="visual" viewBox="0 0 900 360" width="900" height="360" xmlns="http://www.w3.org/2000/svg" xmlns:xlink="http://www.w3.org/1999/xlink" version="1.1"><rect x="0" y="0" width="900" height="360" fill="#ffffff"></rect><path d="M0 184L21.5 187.7C43 191.3 86 198.7 128.8 202.8C171.7 207 214.3 208 257.2 211.7C300 215.3 343 221.7 385.8 219.8C428.7 218 471.3 208 514.2 203.3C557 198.7 600 199.3 642.8 201.7C685.7 204 728.3 208 771.2 207.3C814 206.7 857 201.3 878.5 198.7L900 196L900 361L878.5 361C857 361 814 361 771.2 361C728.3 361 685.7 361 642.8 361C600 361 557 361 514.2 361C471.3 361 428.7 361 385.8 361C343 361 300 361 257.2 361C214.3 361 171.7 361 128.8 361C86 361 43 361 21.5 361L0 361Z" fill="#69f6fa"></path><path d="M0 227L21.5 225.5C43 224 86 221 128.8 217.3C171.7 213.7 214.3 209.3 257.2 210.8C300 212.3 343 219.7 385.8 226.8C428.7 234 471.3 241 514.2 244.2C557 247.3 600 246.7 642.8 243.8C685.7 241 728.3 236 771.2 232.5C814 229 857 227 878.5 226L900 225L900 361L878.5 361C857 361 814 361 771.2 361C728.3 361 685.7 361 642.8 361C600 361 557 361 514.2 361C471.3 361 428.7 361 385.8 361C343 361 300 361 257.2 361C214.3 361 171.7 361 128.8 361C86 361 43 361 21.5 361L0 361Z" fill="#00c8f5"></path><path d="M0 249L21.5 247.7C43 246.3 86 243.7 128.8 245.7C171.7 247.7 214.3 254.3 257.2 259.3C300 264.3 343 267.7 385.8 268.8C428.7 270 471.3 269 514.2 267.3C557 265.7 600 263.3 642.8 261.2C685.7 259 728.3 257 771.2 260C814 263 857 271 878.5 275L900 279L900 361L878.5 361C857 361 814 361 771.2 361C728.3 361 685.7 361 642.8 361C600 361 557 361 514.2 361C471.3 361 428.7 361 385.8 361C343 361 300 361 257.2 361C214.3 361 171.7 361 128.8 361C86 361 43 361 21.5 361L0 361Z" fill="#0097e3"></path><path d="M0 312L21.5 311.5C43 311 86 310 128.8 306.3C171.7 302.7 214.3 296.3 257.2 290.7C300 285 343 280 385.8 278.8C428.7 277.7 471.3 280.3 514.2 283.3C557 286.3 600 289.7 642.8 294C685.7 298.3 728.3 303.7 771.2 304.3C814 305 857 301 878.5 299L900 297L900 361L878.5 361C857 361 814 361 771.2 361C728.3 361 685.7 361 642.8 361C600 361 557 361 514.2 361C471.3 361 428.7 361 385.8 361C343 361 300 361 257.2 361C214.3 361 171.7 361 128.8 361C86 361 43 361 21.5 361L0 361Z" fill="#0062c3"></path><path d="M0 324L21.5 323.2C43 322.3 86 320.7 128.8 319.8C171.7 319 214.3 319 257.2 318.5C300 318 343 317 385.8 317.3C428.7 317.7 471.3 319.3 514.2 318.5C557 317.7 600 314.3 642.8 317.3C685.7 320.3 728.3 329.7 771.2 330.7C814 331.7 857 324.3 878.5 320.7L900 317L900 361L878.5 361C857 361 814 361 771.2 361C728.3 361 685.7 361 642.8 361C600 361 557 361 514.2 361C471.3 361 428.7 361 385.8 361C343 361 300 361 257.2 361C214.3 361 171.7 361 128.8 361C86 361 43 361 21.5 361L0 361Z" fill="#252997"></path></svg>