<svg id="visual" viewBox="0 0 900 360" width="900" height="360" xmlns="http://www.w3.org/2000/svg" xmlns:xlink="http://www.w3.org/1999/xlink" version="1.1"><rect x="0" y="0" width="900" height="360" fill="#001220"></rect><g fill="none" stroke="#A7233A" stroke-width="3"><circle r="45" cx="18" cy="53"></circle><circle r="19" cx="269" cy="49"></circle><circle r="27" cx="758" cy="105"></circle><circle r="39" cx="439" cy="83"></circle><circle r="40" cx="198" cy="273"></circle><circle r="30" cx="117" cy="152"></circle><circle r="31" cx="451" cy="293"></circle><circle r="38" cx="628" cy="324"></circle><circle r="19" cx="371" cy="243"></circle><circle r="27" cx="658" cy="116"></circle><circle r="30" cx="523" cy="208"></circle><circle r="26" cx="878" cy="4"></circle><circle r="40" cx="857" cy="110"></circle><circle r="31" cx="561" cy="49"></circle><circle r="27" cx="726" cy="250"></circle><circle r="26" cx="854" cy="283"></circle><circle r="31" cx="328" cy="338"></circle><circle r="25" cx="43" cy="253"></circle><circle r="22" cx="93" cy="353"></circle><circle r="34" cx="106" cy="14"></circle><circle r="27" cx="371" cy="3"></circle><circle r="19" cx="249" cy="184"></circle><circle r="32" cx="616" cy="229"></circle><circle r="20" cx="737" cy="353"></circle><circle r="18" cx="334" cy="127"></circle><circle r="19" cx="645" cy="4"></circle><circle r="30" cx="771" cy="4"></circle><circle r="21" cx="806" cy="193"></circle><circle r="34" cx="522" cy="358"></circle></g></svg>