<svg id="visual" viewBox="0 0 900 360" width="900" height="360" version="1.1">
  <rect x="0" y="0" width="900" height="360" fill="#252997"></rect>
  <g transform="translate(462.526746260964 191.87899770283406)">
    <path
      id="blob1"
      d="M68.1 -66.8C91.5 -44.8 115.7 -22.4 119.1 3.4C122.6 29.2 105.1 58.5 81.8 73.5C58.5 88.5 29.2 89.2 2.4 86.9C-24.5 84.5 -49 79 -79 64C-109 49 -144.5 24.5 -144.6 -0.1C-144.7 -24.7 -109.5 -49.5 -79.5 -71.5C-49.5 -93.5 -24.7 -112.7 -1.2 -111.6C22.4 -110.4 44.8 -88.8 68.1 -66.8"
      fill="#69f6fa"
    ></path>
  </g>
  <g transform="translate(447.5732760845015 204.17221272853055)">
    <path
      id="blob2"
      d="M107.5 -111.5C130.2 -84.9 133.1 -42.4 126.4 -6.7C119.7 29 103.3 58 80.6 73C58 88 29 89 -4 93C-37 97 -74 104 -96 89C-118 74 -125 37 -124.7 0.4C-124.3 -36.3 -116.6 -72.6 -94.6 -99.3C-72.6 -125.9 -36.3 -143 3.1 -146C42.4 -149.1 84.9 -138.2 107.5 -111.5"
      fill="#69f6fa"
    ></path>
  </g>
</svg>
