<svg id="visual" viewBox="0 0 900 360" width="900" height="360" xmlns="http://www.w3.org/2000/svg" xmlns:xlink="http://www.w3.org/1999/xlink" version="1.1"><rect x="0" y="0" width="900" height="360" fill="#ffffff"></rect><path d="M605 360L604.3 351.5C603.7 343 602.3 326 603.5 308.8C604.7 291.7 608.3 274.3 610.7 257.2C613 240 614 223 611.2 205.8C608.3 188.7 601.7 171.3 607 154.2C612.3 137 629.7 120 634 102.8C638.3 85.7 629.7 68.3 620.8 51.2C612 34 603 17 598.5 8.5L594 0L900 0L900 8.5C900 17 900 34 900 51.2C900 68.3 900 85.7 900 102.8C900 120 900 137 900 154.2C900 171.3 900 188.7 900 205.8C900 223 900 240 900 257.2C900 274.3 900 291.7 900 308.8C900 326 900 343 900 351.5L900 360Z" fill="#fa7268"></path><path d="M600 360L611.5 351.5C623 343 646 326 655.7 308.8C665.3 291.7 661.7 274.3 666.5 257.2C671.3 240 684.7 223 690.8 205.8C697 188.7 696 171.3 693.7 154.2C691.3 137 687.7 120 673.2 102.8C658.7 85.7 633.3 68.3 636 51.2C638.7 34 669.3 17 684.7 8.5L700 0L900 0L900 8.5C900 17 900 34 900 51.2C900 68.3 900 85.7 900 102.8C900 120 900 137 900 154.2C900 171.3 900 188.7 900 205.8C900 223 900 240 900 257.2C900 274.3 900 291.7 900 308.8C900 326 900 343 900 351.5L900 360Z" fill="#ef5f67"></path><path d="M671 360L682.8 351.5C694.7 343 718.3 326 720.3 308.8C722.3 291.7 702.7 274.3 694.3 257.2C686 240 689 223 688.8 205.8C688.7 188.7 685.3 171.3 684.7 154.2C684 137 686 120 689.7 102.8C693.3 85.7 698.7 68.3 700.7 51.2C702.7 34 701.3 17 700.7 8.5L700 0L900 0L900 8.5C900 17 900 34 900 51.2C900 68.3 900 85.7 900 102.8C900 120 900 137 900 154.2C900 171.3 900 188.7 900 205.8C900 223 900 240 900 257.2C900 274.3 900 291.7 900 308.8C900 326 900 343 900 351.5L900 360Z" fill="#e34c67"></path><path d="M780 360L773.5 351.5C767 343 754 326 755.8 308.8C757.7 291.7 774.3 274.3 771.7 257.2C769 240 747 223 738.7 205.8C730.3 188.7 735.7 171.3 746.3 154.2C757 137 773 120 770 102.8C767 85.7 745 68.3 740.5 51.2C736 34 749 17 755.5 8.5L762 0L900 0L900 8.5C900 17 900 34 900 51.2C900 68.3 900 85.7 900 102.8C900 120 900 137 900 154.2C900 171.3 900 188.7 900 205.8C900 223 900 240 900 257.2C900 274.3 900 291.7 900 308.8C900 326 900 343 900 351.5L900 360Z" fill="#d53867"></path><path d="M812 360L815.7 351.5C819.3 343 826.7 326 832 308.8C837.3 291.7 840.7 274.3 845.2 257.2C849.7 240 855.3 223 858.5 205.8C861.7 188.7 862.3 171.3 850.7 154.2C839 137 815 120 802.8 102.8C790.7 85.7 790.3 68.3 791.2 51.2C792 34 794 17 795 8.5L796 0L900 0L900 8.5C900 17 900 34 900 51.2C900 68.3 900 85.7 900 102.8C900 120 900 137 900 154.2C900 171.3 900 188.7 900 205.8C900 223 900 240 900 257.2C900 274.3 900 291.7 900 308.8C900 326 900 343 900 351.5L900 360Z" fill="#c62368"></path></svg>