<svg id="visual" viewBox="0 0 900 360" width="900" height="360" xmlns="http://www.w3.org/2000/svg" xmlns:xlink="http://www.w3.org/1999/xlink" version="1.1"><rect x="0" y="0" width="900" height="360" fill="#ffffff"></rect><path d="M0 117L21.5 117.3C43 117.7 86 118.3 128.8 117.8C171.7 117.3 214.3 115.7 257.2 114.7C300 113.7 343 113.3 385.8 114.7C428.7 116 471.3 119 514.2 117C557 115 600 108 642.8 106.2C685.7 104.3 728.3 107.7 771.2 111.2C814 114.7 857 118.3 878.5 120.2L900 122L900 0L878.5 0C857 0 814 0 771.2 0C728.3 0 685.7 0 642.8 0C600 0 557 0 514.2 0C471.3 0 428.7 0 385.8 0C343 0 300 0 257.2 0C214.3 0 171.7 0 128.8 0C86 0 43 0 21.5 0L0 0Z" fill="#fa7268"></path><path d="M0 119L21.5 114.5C43 110 86 101 128.8 97.2C171.7 93.3 214.3 94.7 257.2 92.7C300 90.7 343 85.3 385.8 82.8C428.7 80.3 471.3 80.7 514.2 81.7C557 82.7 600 84.3 642.8 90.2C685.7 96 728.3 106 771.2 104.8C814 103.7 857 91.3 878.5 85.2L900 79L900 0L878.5 0C857 0 814 0 771.2 0C728.3 0 685.7 0 642.8 0C600 0 557 0 514.2 0C471.3 0 428.7 0 385.8 0C343 0 300 0 257.2 0C214.3 0 171.7 0 128.8 0C86 0 43 0 21.5 0L0 0Z" fill="#ef5f67"></path><path d="M0 91L21.5 86.3C43 81.7 86 72.3 128.8 71.5C171.7 70.7 214.3 78.3 257.2 81.7C300 85 343 84 385.8 84.2C428.7 84.3 471.3 85.7 514.2 85.8C557 86 600 85 642.8 83.5C685.7 82 728.3 80 771.2 79.2C814 78.3 857 78.7 878.5 78.8L900 79L900 0L878.5 0C857 0 814 0 771.2 0C728.3 0 685.7 0 642.8 0C600 0 557 0 514.2 0C471.3 0 428.7 0 385.8 0C343 0 300 0 257.2 0C214.3 0 171.7 0 128.8 0C86 0 43 0 21.5 0L0 0Z" fill="#e34c67"></path><path d="M0 47L21.5 49.7C43 52.3 86 57.7 128.8 57C171.7 56.3 214.3 49.7 257.2 50.7C300 51.7 343 60.3 385.8 63.7C428.7 67 471.3 65 514.2 60.8C557 56.7 600 50.3 642.8 51.5C685.7 52.7 728.3 61.3 771.2 63.2C814 65 857 60 878.5 57.5L900 55L900 0L878.5 0C857 0 814 0 771.2 0C728.3 0 685.7 0 642.8 0C600 0 557 0 514.2 0C471.3 0 428.7 0 385.8 0C343 0 300 0 257.2 0C214.3 0 171.7 0 128.8 0C86 0 43 0 21.5 0L0 0Z" fill="#d53867"></path><path d="M0 35L21.5 33.5C43 32 86 29 128.8 26.8C171.7 24.7 214.3 23.3 257.2 21.5C300 19.7 343 17.3 385.8 16C428.7 14.7 471.3 14.3 514.2 19C557 23.7 600 33.3 642.8 38.2C685.7 43 728.3 43 771.2 42.7C814 42.3 857 41.7 878.5 41.3L900 41L900 0L878.5 0C857 0 814 0 771.2 0C728.3 0 685.7 0 642.8 0C600 0 557 0 514.2 0C471.3 0 428.7 0 385.8 0C343 0 300 0 257.2 0C214.3 0 171.7 0 128.8 0C86 0 43 0 21.5 0L0 0Z" fill="#c62368"></path></svg>