<svg id="visual" viewBox="0 0 900 360" width="900" height="360" xmlns="http://www.w3.org/2000/svg" xmlns:xlink="http://www.w3.org/1999/xlink" version="1.1"><g stroke-width="1" stroke-linejoin="bevel"><path d="M399 182L416 94L331 149Z" fill="#015668" stroke="#015668"></path><path d="M416 94L305 56L331 149Z" fill="#023a46" stroke="#023a46"></path><path d="M416 94L366 0L305 56Z" fill="#02a1c7" stroke="#02a1c7"></path><path d="M399 182L505 192L416 94Z" fill="#02a1c7" stroke="#02a1c7"></path><path d="M416 94L508 0L366 0Z" fill="#00738c" stroke="#00738c"></path><path d="M505 192L518 78L416 94Z" fill="#0dc1f1" stroke="#0dc1f1"></path><path d="M202 146L297 267L331 149Z" fill="#014856" stroke="#014856"></path><path d="M331 149L297 267L399 182Z" fill="#0dc1f1" stroke="#0dc1f1"></path><path d="M399 182L395 296L505 192Z" fill="#023a46" stroke="#023a46"></path><path d="M297 267L395 296L399 182Z" fill="#06b1dc" stroke="#06b1dc"></path><path d="M366 0L269 0L305 56Z" fill="#00738c" stroke="#00738c"></path><path d="M305 56L202 146L331 149Z" fill="#02a1c7" stroke="#02a1c7"></path><path d="M193 121L202 146L305 56Z" fill="#022d36" stroke="#022d36"></path><path d="M518 78L508 0L416 94Z" fill="#02a1c7" stroke="#02a1c7"></path><path d="M505 192L566 121L518 78Z" fill="#00829f" stroke="#00829f"></path><path d="M518 78L593 0L508 0Z" fill="#0091b3" stroke="#0091b3"></path><path d="M217 0L193 121L305 56Z" fill="#0091b3" stroke="#0091b3"></path><path d="M395 296L533 271L505 192Z" fill="#00738c" stroke="#00738c"></path><path d="M505 192L601 167L566 121Z" fill="#014856" stroke="#014856"></path><path d="M269 0L217 0L305 56Z" fill="#023a46" stroke="#023a46"></path><path d="M583 251L601 167L505 192Z" fill="#06b1dc" stroke="#06b1dc"></path><path d="M566 121L593 0L518 78Z" fill="#00647a" stroke="#00647a"></path><path d="M302 360L415 360L395 296Z" fill="#06b1dc" stroke="#06b1dc"></path><path d="M395 296L483 360L533 271Z" fill="#015668" stroke="#015668"></path><path d="M616 360L583 251L533 271Z" fill="#0091b3" stroke="#0091b3"></path><path d="M533 271L583 251L505 192Z" fill="#015668" stroke="#015668"></path><path d="M190 360L302 360L297 267Z" fill="#00647a" stroke="#00647a"></path><path d="M297 267L302 360L395 296Z" fill="#06b1dc" stroke="#06b1dc"></path><path d="M415 360L483 360L395 296Z" fill="#0091b3" stroke="#0091b3"></path><path d="M685 63L593 0L566 121Z" fill="#00738c" stroke="#00738c"></path><path d="M105 162L175 282L202 146Z" fill="#02a1c7" stroke="#02a1c7"></path><path d="M202 146L175 282L297 267Z" fill="#0091b3" stroke="#0091b3"></path><path d="M193 121L105 162L202 146Z" fill="#00738c" stroke="#00738c"></path><path d="M104 76L105 162L193 121Z" fill="#00647a" stroke="#00647a"></path><path d="M217 0L104 76L193 121Z" fill="#022d36" stroke="#022d36"></path><path d="M175 282L190 360L297 267Z" fill="#022d36" stroke="#022d36"></path><path d="M112 281L190 360L175 282Z" fill="#00829f" stroke="#00829f"></path><path d="M105 162L112 281L175 282Z" fill="#00829f" stroke="#00829f"></path><path d="M601 167L685 63L566 121Z" fill="#00829f" stroke="#00829f"></path><path d="M724 205L685 63L601 167Z" fill="#00738c" stroke="#00738c"></path><path d="M616 360L684 237L583 251Z" fill="#0091b3" stroke="#0091b3"></path><path d="M583 251L684 237L601 167Z" fill="#0dc1f1" stroke="#0dc1f1"></path><path d="M483 360L616 360L533 271Z" fill="#00647a" stroke="#00647a"></path><path d="M217 0L82 0L104 76Z" fill="#022d36" stroke="#022d36"></path><path d="M104 76L0 153L105 162Z" fill="#023a46" stroke="#023a46"></path><path d="M105 162L0 153L112 281Z" fill="#0091b3" stroke="#0091b3"></path><path d="M790 0L699 0L685 63Z" fill="#015668" stroke="#015668"></path><path d="M685 63L699 0L593 0Z" fill="#00647a" stroke="#00647a"></path><path d="M781 203L724 205L768 301Z" fill="#0091b3" stroke="#0091b3"></path><path d="M684 237L724 205L601 167Z" fill="#00738c" stroke="#00738c"></path><path d="M0 62L0 153L104 76Z" fill="#06b1dc" stroke="#06b1dc"></path><path d="M0 299L71 360L112 281Z" fill="#06b1dc" stroke="#06b1dc"></path><path d="M112 281L71 360L190 360Z" fill="#00647a" stroke="#00647a"></path><path d="M82 0L0 62L104 76Z" fill="#014856" stroke="#014856"></path><path d="M82 0L0 0L0 62Z" fill="#014856" stroke="#014856"></path><path d="M768 301L724 205L684 237Z" fill="#022d36" stroke="#022d36"></path><path d="M724 205L823 89L685 63Z" fill="#0091b3" stroke="#0091b3"></path><path d="M616 360L722 360L684 237Z" fill="#02a1c7" stroke="#02a1c7"></path><path d="M0 153L0 299L112 281Z" fill="#014856" stroke="#014856"></path><path d="M722 360L768 301L684 237Z" fill="#00738c" stroke="#00738c"></path><path d="M823 89L790 0L685 63Z" fill="#014856" stroke="#014856"></path><path d="M0 299L0 360L71 360Z" fill="#023a46" stroke="#023a46"></path><path d="M781 203L823 89L724 205Z" fill="#06b1dc" stroke="#06b1dc"></path><path d="M900 115L823 89L900 183Z" fill="#00829f" stroke="#00829f"></path><path d="M722 360L794 360L768 301Z" fill="#023a46" stroke="#023a46"></path><path d="M900 278L900 183L781 203Z" fill="#00738c" stroke="#00738c"></path><path d="M900 183L823 89L781 203Z" fill="#02a1c7" stroke="#02a1c7"></path><path d="M823 89L900 0L790 0Z" fill="#0091b3" stroke="#0091b3"></path><path d="M900 278L781 203L768 301Z" fill="#00647a" stroke="#00647a"></path><path d="M900 115L900 0L823 89Z" fill="#06b1dc" stroke="#06b1dc"></path><path d="M794 360L900 278L768 301Z" fill="#015668" stroke="#015668"></path><path d="M794 360L900 360L900 278Z" fill="#022d36" stroke="#022d36"></path></g></svg>