<svg id="visual" viewBox="0 0 900 360" width="900" height="360" xmlns="http://www.w3.org/2000/svg" xmlns:xlink="http://www.w3.org/1999/xlink" version="1.1"><rect x="0" y="0" width="900" height="360" fill="#FFFFFF"></rect><defs><linearGradient id="grad1_0" x1="60%" y1="100%" x2="100%" y2="0%"><stop offset="0%" stop-color="#fbae3c" stop-opacity="1"></stop><stop offset="100%" stop-color="#fbae3c" stop-opacity="1"></stop></linearGradient></defs><defs><linearGradient id="grad1_1" x1="60%" y1="100%" x2="100%" y2="0%"><stop offset="0%" stop-color="#fbae3c" stop-opacity="1"></stop><stop offset="100%" stop-color="#ffd69f" stop-opacity="1"></stop></linearGradient></defs><defs><linearGradient id="grad1_2" x1="60%" y1="100%" x2="100%" y2="0%"><stop offset="0%" stop-color="#ffffff" stop-opacity="1"></stop><stop offset="100%" stop-color="#ffd69f" stop-opacity="1"></stop></linearGradient></defs><defs><linearGradient id="grad2_0" x1="0%" y1="100%" x2="40%" y2="0%"><stop offset="0%" stop-color="#fbae3c" stop-opacity="1"></stop><stop offset="100%" stop-color="#fbae3c" stop-opacity="1"></stop></linearGradient></defs><defs><linearGradient id="grad2_1" x1="0%" y1="100%" x2="40%" y2="0%"><stop offset="0%" stop-color="#ffd69f" stop-opacity="1"></stop><stop offset="100%" stop-color="#fbae3c" stop-opacity="1"></stop></linearGradient></defs><defs><linearGradient id="grad2_2" x1="0%" y1="100%" x2="40%" y2="0%"><stop offset="0%" stop-color="#ffd69f" stop-opacity="1"></stop><stop offset="100%" stop-color="#ffffff" stop-opacity="1"></stop></linearGradient></defs><g transform="translate(900, 360)"><path d="M-306 0C-275.9 -29.6 -245.7 -59.3 -234.7 -97.2C-223.6 -135.1 -231.6 -181.3 -215 -215C-198.3 -248.6 -157 -269.6 -117.1 -282.7C-77.2 -295.8 -38.6 -300.9 0 -306L0 0Z" fill="#ffeacf"></path><path d="M-204 0C-183.9 -19.8 -163.8 -39.5 -156.4 -64.8C-149.1 -90.1 -154.4 -120.9 -143.3 -143.3C-132.2 -165.7 -104.7 -179.8 -78.1 -188.5C-51.4 -197.2 -25.7 -200.6 0 -204L0 0Z" fill="#ffc270"></path><path d="M-102 0C-92 -9.9 -81.9 -19.8 -78.2 -32.4C-74.5 -45 -77.2 -60.4 -71.7 -71.7C-66.1 -82.9 -52.3 -89.9 -39 -94.2C-25.7 -98.6 -12.9 -100.3 0 -102L0 0Z" fill="#fbae3c"></path></g><g transform="translate(0, 0)"><path d="M306 0C289.4 35.7 272.9 71.4 258.7 107.2C244.5 143 232.7 178.9 210 210C187.4 241.1 153.9 267.5 117.1 282.7C80.3 297.9 40.1 302 0 306L0 0Z" fill="#ffeacf"></path><path d="M204 0C193 23.8 181.9 47.6 172.5 71.4C163 95.3 155.1 119.2 140 140C124.9 160.8 102.6 178.3 78.1 188.5C53.5 198.6 26.8 201.3 0 204L0 0Z" fill="#ffc270"></path><path d="M102 0C96.5 11.9 91 23.8 86.2 35.7C81.5 47.7 77.6 59.6 70 70C62.5 80.4 51.3 89.2 39 94.2C26.8 99.3 13.4 100.7 0 102L0 0Z" fill="#fbae3c"></path></g></svg>