<svg id="visual" viewBox="0 0 900 360" width="900" height="360" xmlns="http://www.w3.org/2000/svg" xmlns:xlink="http://www.w3.org/1999/xlink" version="1.1"><rect x="0" y="0" width="900" height="360" fill="#FFFFFF"></rect><defs><linearGradient id="grad1_0" x1="60%" y1="0%" x2="100%" y2="100%"><stop offset="0%" stop-color="#fbae3c" stop-opacity="1"></stop><stop offset="100%" stop-color="#fbae3c" stop-opacity="1"></stop></linearGradient></defs><defs><linearGradient id="grad1_1" x1="60%" y1="0%" x2="100%" y2="100%"><stop offset="0%" stop-color="#fbae3c" stop-opacity="1"></stop><stop offset="100%" stop-color="#ffd69f" stop-opacity="1"></stop></linearGradient></defs><defs><linearGradient id="grad1_2" x1="60%" y1="0%" x2="100%" y2="100%"><stop offset="0%" stop-color="#ffffff" stop-opacity="1"></stop><stop offset="100%" stop-color="#ffd69f" stop-opacity="1"></stop></linearGradient></defs><defs><linearGradient id="grad2_0" x1="0%" y1="0%" x2="40%" y2="100%"><stop offset="0%" stop-color="#fbae3c" stop-opacity="1"></stop><stop offset="100%" stop-color="#fbae3c" stop-opacity="1"></stop></linearGradient></defs><defs><linearGradient id="grad2_1" x1="0%" y1="0%" x2="40%" y2="100%"><stop offset="0%" stop-color="#ffd69f" stop-opacity="1"></stop><stop offset="100%" stop-color="#fbae3c" stop-opacity="1"></stop></linearGradient></defs><defs><linearGradient id="grad2_2" x1="0%" y1="0%" x2="40%" y2="100%"><stop offset="0%" stop-color="#ffd69f" stop-opacity="1"></stop><stop offset="100%" stop-color="#ffffff" stop-opacity="1"></stop></linearGradient></defs><g transform="translate(900, 0)"><path d="M0 306C-29.6 275.9 -59.3 245.7 -97.2 234.7C-135.1 223.6 -181.3 231.6 -215 215C-248.6 198.3 -269.6 157 -282.7 117.1C-295.8 77.2 -300.9 38.6 -306 0L0 0Z" fill="#ffeacf"></path><path d="M0 204C-19.8 183.9 -39.5 163.8 -64.8 156.4C-90.1 149.1 -120.9 154.4 -143.3 143.3C-165.7 132.2 -179.8 104.7 -188.5 78.1C-197.2 51.4 -200.6 25.7 -204 0L0 0Z" fill="#ffc270"></path><path d="M0 102C-9.9 92 -19.8 81.9 -32.4 78.2C-45 74.5 -60.4 77.2 -71.7 71.7C-82.9 66.1 -89.9 52.3 -94.2 39C-98.6 25.7 -100.3 12.9 -102 0L0 0Z" fill="#fbae3c"></path></g><g transform="translate(0, 360)"><path d="M0 -306C35.7 -289.4 71.4 -272.9 107.2 -258.7C143 -244.5 178.9 -232.7 210 -210C241.1 -187.4 267.5 -153.9 282.7 -117.1C297.9 -80.3 302 -40.1 306 0L0 0Z" fill="#ffeacf"></path><path d="M0 -204C23.8 -193 47.6 -181.9 71.4 -172.5C95.3 -163 119.2 -155.1 140 -140C160.8 -124.9 178.3 -102.6 188.5 -78.1C198.6 -53.5 201.3 -26.8 204 0L0 0Z" fill="#ffc270"></path><path d="M0 -102C11.9 -96.5 23.8 -91 35.7 -86.2C47.7 -81.5 59.6 -77.6 70 -70C80.4 -62.5 89.2 -51.3 94.2 -39C99.3 -26.8 100.7 -13.4 102 0L0 0Z" fill="#fbae3c"></path></g></svg>